<svg width="222" height="18" viewBox="0 0 222 18" fill="none" xmlns="http://www.w3.org/2000/svg">
<path d="M-0.000234276 14.2402V0.240233H3.21977V9.36023L9.89977 0.240233H12.9398V14.2402H9.73977V5.14023L3.05977 14.2402H-0.000234276ZM16.4255 14.2402V0.240233H22.9455C24.5722 0.240233 25.8389 0.553567 26.7455 1.18023C27.6522 1.8069 28.1055 2.70023 28.1055 3.86023C28.1055 5.0069 27.6789 5.90023 26.8255 6.54023C25.9722 7.1669 24.8389 7.48023 23.4255 7.48023L23.8055 6.64023C25.3789 6.64023 26.5989 6.95357 27.4655 7.58023C28.3322 8.2069 28.7655 9.11357 28.7655 10.3002C28.7655 11.5269 28.2989 12.4936 27.3655 13.2002C26.4455 13.8936 25.0989 14.2402 23.3255 14.2402H16.4255ZM19.6455 11.8402H23.2055C23.9522 11.8402 24.5189 11.6936 24.9055 11.4002C25.2922 11.1069 25.4855 10.6536 25.4855 10.0402C25.4855 9.45357 25.2922 9.02023 24.9055 8.74023C24.5189 8.4469 23.9522 8.30023 23.2055 8.30023H19.6455V11.8402ZM19.6455 6.04023H22.6655C23.3722 6.04023 23.9055 5.90023 24.2655 5.62023C24.6255 5.3269 24.8055 4.90023 24.8055 4.34023C24.8055 3.78023 24.6255 3.36023 24.2655 3.08023C23.9055 2.7869 23.3722 2.64023 22.6655 2.64023H19.6455V6.04023ZM29.7479 14.2402L35.9879 0.240233H39.1879L45.4479 14.2402H42.0479L36.9279 1.88023H38.2079L33.0679 14.2402H29.7479ZM32.8679 11.2402L33.7279 8.78023H40.9279L41.8079 11.2402H32.8679ZM56.9045 14.2402V0.240233H60.1445V14.2402H56.9045ZM47.3045 14.2402V0.240233H50.5445V14.2402H47.3045ZM50.3045 8.50023V5.76023H57.1445V8.50023H50.3045ZM78.3762 14.2402L74.0162 7.50023L76.6362 5.92023L82.0562 14.2402H78.3762ZM69.2762 14.2402V0.240233H72.4962V14.2402H69.2762ZM71.5562 8.60023V5.90023H76.4362V8.60023H71.5562ZM76.9362 7.60023L73.9562 7.24023L78.4962 0.240233H81.9162L76.9362 7.60023ZM90.2154 14.4802C89.1087 14.4802 88.0821 14.3002 87.1354 13.9402C86.2021 13.5802 85.3887 13.0736 84.6954 12.4202C84.0154 11.7669 83.4821 11.0002 83.0954 10.1202C82.7221 9.24023 82.5354 8.28023 82.5354 7.24023C82.5354 6.20023 82.7221 5.24023 83.0954 4.36023C83.4821 3.48023 84.0221 2.71357 84.7154 2.06023C85.4087 1.4069 86.2221 0.900233 87.1554 0.540233C88.0887 0.180234 89.1021 0.000234127 90.1954 0.000234127C91.3021 0.000234127 92.3154 0.180234 93.2354 0.540233C94.1687 0.900233 94.9754 1.4069 95.6554 2.06023C96.3487 2.71357 96.8887 3.48023 97.2754 4.36023C97.6621 5.2269 97.8554 6.1869 97.8554 7.24023C97.8554 8.28023 97.6621 9.2469 97.2754 10.1402C96.8887 11.0202 96.3487 11.7869 95.6554 12.4402C94.9754 13.0802 94.1687 13.5802 93.2354 13.9402C92.3154 14.3002 91.3087 14.4802 90.2154 14.4802ZM90.1954 11.7202C90.8221 11.7202 91.3954 11.6136 91.9154 11.4002C92.4487 11.1869 92.9154 10.8802 93.3154 10.4802C93.7154 10.0802 94.0221 9.6069 94.2354 9.06023C94.4621 8.51357 94.5754 7.9069 94.5754 7.24023C94.5754 6.57357 94.4621 5.9669 94.2354 5.42023C94.0221 4.87357 93.7154 4.40023 93.3154 4.00023C92.9287 3.60023 92.4687 3.29357 91.9354 3.08023C91.4021 2.8669 90.8221 2.76023 90.1954 2.76023C89.5687 2.76023 88.9887 2.8669 88.4554 3.08023C87.9354 3.29357 87.4754 3.60023 87.0754 4.00023C86.6754 4.40023 86.3621 4.87357 86.1354 5.42023C85.9221 5.9669 85.8154 6.57357 85.8154 7.24023C85.8154 7.89357 85.9221 8.50023 86.1354 9.06023C86.3621 9.6069 86.6687 10.0802 87.0554 10.4802C87.4554 10.8802 87.9221 11.1869 88.4554 11.4002C88.9887 11.6136 89.5687 11.7202 90.1954 11.7202ZM100.351 14.2402V0.240233H106.411C107.665 0.240233 108.745 0.4469 109.651 0.860234C110.558 1.26023 111.258 1.84023 111.751 2.60023C112.245 3.36023 112.491 4.2669 112.491 5.32023C112.491 6.36023 112.245 7.26023 111.751 8.02023C111.258 8.78023 110.558 9.3669 109.651 9.78023C108.745 10.1802 107.665 10.3802 106.411 10.3802H102.151L103.591 8.92023V14.2402H100.351ZM103.591 9.28023L102.151 7.74023H106.231C107.231 7.74023 107.978 7.5269 108.471 7.10023C108.965 6.67357 109.211 6.08023 109.211 5.32023C109.211 4.5469 108.965 3.9469 108.471 3.52023C107.978 3.09357 107.231 2.88023 106.231 2.88023H102.151L103.591 1.34023V9.28023ZM114.629 14.2402V0.240233H127.389V14.2402H124.169V2.14023L124.909 2.88023H117.109L117.849 2.14023V14.2402H114.629ZM137.559 14.4802C136.452 14.4802 135.426 14.3002 134.479 13.9402C133.546 13.5802 132.732 13.0736 132.039 12.4202C131.359 11.7669 130.826 11.0002 130.439 10.1202C130.066 9.24023 129.879 8.28023 129.879 7.24023C129.879 6.20023 130.066 5.24023 130.439 4.36023C130.826 3.48023 131.366 2.71357 132.059 2.06023C132.752 1.4069 133.566 0.900233 134.499 0.540233C135.432 0.180234 136.446 0.000234127 137.539 0.000234127C138.646 0.000234127 139.659 0.180234 140.579 0.540233C141.512 0.900233 142.319 1.4069 142.999 2.06023C143.692 2.71357 144.232 3.48023 144.619 4.36023C145.006 5.2269 145.199 6.1869 145.199 7.24023C145.199 8.28023 145.006 9.2469 144.619 10.1402C144.232 11.0202 143.692 11.7869 142.999 12.4402C142.319 13.0802 141.512 13.5802 140.579 13.9402C139.659 14.3002 138.652 14.4802 137.559 14.4802ZM137.539 11.7202C138.166 11.7202 138.739 11.6136 139.259 11.4002C139.792 11.1869 140.259 10.8802 140.659 10.4802C141.059 10.0802 141.366 9.6069 141.579 9.06023C141.806 8.51357 141.919 7.9069 141.919 7.24023C141.919 6.57357 141.806 5.9669 141.579 5.42023C141.366 4.87357 141.059 4.40023 140.659 4.00023C140.272 3.60023 139.812 3.29357 139.279 3.08023C138.746 2.8669 138.166 2.76023 137.539 2.76023C136.912 2.76023 136.332 2.8669 135.799 3.08023C135.279 3.29357 134.819 3.60023 134.419 4.00023C134.019 4.40023 133.706 4.87357 133.479 5.42023C133.266 5.9669 133.159 6.57357 133.159 7.24023C133.159 7.89357 133.266 8.50023 133.479 9.06023C133.706 9.6069 134.012 10.0802 134.399 10.4802C134.799 10.8802 135.266 11.1869 135.799 11.4002C136.332 11.6136 136.912 11.7202 137.539 11.7202ZM147.695 14.2402V0.240233H153.755C155.008 0.240233 156.088 0.4469 156.995 0.860234C157.902 1.26023 158.602 1.84023 159.095 2.60023C159.588 3.36023 159.835 4.2669 159.835 5.32023C159.835 6.36023 159.588 7.26023 159.095 8.02023C158.602 8.78023 157.902 9.3669 156.995 9.78023C156.088 10.1802 155.008 10.3802 153.755 10.3802H149.495L150.935 8.92023V14.2402H147.695ZM150.935 9.28023L149.495 7.74023H153.575C154.575 7.74023 155.322 7.5269 155.815 7.10023C156.308 6.67357 156.555 6.08023 156.555 5.32023C156.555 4.5469 156.308 3.9469 155.815 3.52023C155.322 3.09357 154.575 2.88023 153.575 2.88023H149.495L150.935 1.34023V9.28023ZM159.689 14.2402L165.929 0.240233H169.129L175.389 14.2402H171.989L166.869 1.88023H168.149L163.009 14.2402H159.689ZM162.809 11.2402L163.669 8.78023H170.869L171.749 11.2402H162.809ZM177.246 14.2402V0.240233H180.466V11.6002H186.706V0.240233H189.926V14.2402H177.246ZM188.946 17.2002V13.4802L189.646 14.2402H186.706V11.6002H191.926V17.2002H188.946ZM194.062 14.2402V0.240233H197.282V9.36023L203.962 0.240233H207.002V14.2402H203.802V5.14023L197.122 14.2402H194.062ZM218.077 14.2402V9.82023L218.877 10.5202H215.037C213.824 10.5202 212.777 10.3202 211.897 9.92023C211.017 9.52023 210.344 8.94023 209.877 8.18023C209.411 7.42023 209.177 6.51357 209.177 5.46023C209.177 4.3669 209.424 3.43357 209.917 2.66023C210.424 1.87357 211.131 1.27357 212.037 0.860234C212.944 0.4469 214.011 0.240233 215.237 0.240233H221.277V14.2402H218.077ZM209.217 14.2402L212.697 9.22023H215.977L212.637 14.2402H209.217ZM218.077 8.78023V2.04023L218.877 2.88023H215.317C214.397 2.88023 213.691 3.09357 213.197 3.52023C212.717 3.9469 212.477 4.58023 212.477 5.42023C212.477 6.23357 212.711 6.86023 213.177 7.30023C213.644 7.74023 214.331 7.96023 215.237 7.96023H218.877L218.077 8.78023Z" fill="white"/>
</svg>
